<?xml version="1.0" encoding="UTF-8"?>
<svg width="220px" height="72px" viewBox="0 0 220 72" version="1.1" xmlns="http://www.w3.org/2000/svg" xmlns:xlink="http://www.w3.org/1999/xlink">
    <title>vueschool_logo_two lines_white bg</title>
    <g id="Page-1" stroke="none" stroke-width="1" fill="none" fill-rule="evenodd">
        <g id="vueschool_logo_two-lines_white-bg" transform="translate(-30.000000, -28.000000)" fill-rule="nonzero">
            <g transform="translate(30.000000, 28.000000)">
                <g id="Group">
                    <path d="M18.2151641,44.6685941 C13.4840923,20.769017 17.9666923,5.08585352 17.9666923,5.08585352 C17.9666923,5.08585352 16.7674977,14.6327655 26.1940586,30.0206055 C26.0739673,49.0969027 29.7494891,59.047817 29.7494891,59.047817 L30.5048108,58.4800455 L29.7494891,59.1523198 C29.7494891,59.1523198 24.1601891,54.4910398 18.2151641,44.6685941 Z" id="Path" fill="#364FDE"></path>
                    <path d="M40.4971554,41.2849027 C42.7584706,43.6128684 44.8682564,45.2236112 46.3931532,45.9895884 C46.3841564,45.9849598 46.3751597,45.9803312 46.366163,45.9755998 C46.366163,45.9755998 48.0781717,46.6030284 48.3803206,46.1848112 C50.467463,43.9271998 50.9775477,39.7202398 49.5865912,31.8131998 C41.6302391,27.1716684 40.6259401,19.9358741 40.6259401,19.9358741 C40.6259401,19.9358741 39.1928304,29.981417 40.4971554,41.2849027 Z" id="Path" fill="#364FDE"></path>
                    <path d="M17.9664901,5.08585352 C17.9664901,5.08585352 11.4205032,27.9883541 22.4983195,60.6164912 C22.8003673,61.5576341 22.4983195,62.6034855 21.6926564,63.2309141 L10.0105929,71.5971084 C8.90281123,72.4337484 7.29149525,71.9108227 6.7879609,70.5513598 C3.66603177,61.8713484 -4.89409258,33.1125941 3.7667346,1.63479067 C4.16956612,0.379865638 5.47876351,-0.352176877 6.68724797,0.170710781 L17.9664901,5.08585352 Z" id="Path" fill="#56D8FF"></path>
                    <path d="M40.3236901,51.0999427 L29.749388,59.047817 C29.749388,59.047817 24.1097467,43.779497 27.0302499,14.8115312 C27.2317162,13.1383541 28.9437249,12.3017141 30.3535847,13.1383541 L40.625738,19.9358741 C40.625738,19.9358741 38.6115804,34.0538398 41.5320836,47.6488798 C41.8342325,49.0083427 41.3307184,50.3679084 40.3236901,51.0999427 Z" id="Path" fill="#667DFF"></path>
                    <path d="M59.8607662,33.4263084 L50.0921271,26.8379998 C49.4879304,26.4196798 48.5815847,27.0471084 48.7829499,27.7791427 C51.0992564,38.3414398 50.7971075,43.5703884 48.3801184,46.1848112 C48.0779695,46.6031312 46.3659608,45.9755998 46.3659608,45.9755998 C47.9772869,46.8122398 48.3801184,46.3939198 48.3801184,46.3939198 C49.9914445,45.1389598 56.0339173,40.6421484 59.8607662,37.9231198 C61.3714097,36.7727655 61.3714097,34.472057 59.8607662,33.4263084 Z" id="Path" fill="#667DFF"></path>
                </g>
                <path d="M100.38,25.54 L94.83,9.73 L90.3,9.73 L98.16,31 L102.42,31 L110.31,9.73 L105.93,9.73 L100.38,25.54 Z M121.08,31 L124.89,31 L124.860614,30.7298225 C124.809545,30.2239053 124.751648,29.451716 124.741543,28.5907692 L124.74,16.24 L120.75,16.24 L120.75,24.82 C120.75,26.53 119.73,27.73 117.96,27.73 C116.1,27.73 115.26,26.41 115.26,24.76 L115.26,16.24 L111.27,16.24 L111.27,25.57 C111.27,28.78 113.31,31.39 116.88,31.39 C118.44,31.39 120.15,30.79 120.96,29.41 C120.96,30.01 121.02,30.7 121.08,31 Z M131.85,21.94 C131.94,20.59 133.08,19.03 135.15,19.03 C137.43,19.03 138.39,20.47 138.45,21.94 L131.85,21.94 Z M138.84,25.78 C138.36,27.1 137.34,28.03 135.48,28.03 C133.5,28.03 131.85,26.62 131.76,24.67 L142.32,24.67 L142.364444,23.9988889 C142.373333,23.8233333 142.38,23.63 142.38,23.44 C142.38,18.7 139.65,15.79 135.09,15.79 C131.31,15.79 127.83,18.85 127.83,23.56 C127.83,28.54 131.4,31.45 135.45,31.45 C139.08,31.45 141.42,29.32 142.17,26.77 L138.84,25.78 Z M106.74,46.3 C106.26,43.9 104.28,40.78 99.12,40.78 C95.1,40.78 91.71,43.66 91.71,47.44 C91.71,50.65 93.9,52.84 97.29,53.53 L100.26,54.13 C101.91,54.46 102.84,55.42 102.84,56.65 C102.84,58.15 101.61,59.26 99.39,59.26 C96.39,59.26 94.92,57.37 94.74,55.27 L90.9,56.29 C91.23,59.32 93.72,62.95 99.36,62.95 C104.31,62.95 107.04,59.65 107.04,56.38 C107.04,53.38 104.97,50.86 101.1,50.11 L98.13,49.54 C96.57,49.24 95.82,48.31 95.82,47.14 C95.82,45.73 97.14,44.44 99.15,44.44 C101.85,44.44 102.81,46.27 103.02,47.44 L106.74,46.3 Z M116.76,50.98 C118.74,50.98 119.67,52.24 120.03,53.47 L123.6,52.27 C122.97,49.78 120.69,47.29 116.67,47.29 C112.38,47.29 109.02,50.56 109.02,55.12 C109.02,59.65 112.44,62.95 116.79,62.95 C120.72,62.95 123.03,60.43 123.69,57.97 L120.18,56.8 C119.85,57.94 118.83,59.29 116.79,59.29 C114.75,59.29 113.01,57.79 113.01,55.12 C113.01,52.45 114.72,50.98 116.76,50.98 Z M130.62,53.83 C130.71,52.21 131.7,50.95 133.38,50.95 C135.3,50.95 136.11,52.24 136.11,53.89 L136.11,62.5 L140.1,62.5 L140.1,53.2 C140.1,49.96 138.36,47.35 134.61,47.35 C133.2,47.35 131.58,47.83 130.62,48.97 L130.62,40.78 L126.63,40.78 L126.63,62.5 L130.62,62.5 L130.62,53.83 Z M150.78,59.32 C148.83,59.32 147.03,57.88 147.03,55.12 C147.03,52.33 148.83,50.92 150.78,50.92 C152.73,50.92 154.53,52.33 154.53,55.12 C154.53,57.91 152.73,59.32 150.78,59.32 Z M150.78,47.29 C146.37,47.29 143.04,50.56 143.04,55.12 C143.04,59.65 146.37,62.95 150.78,62.95 C155.19,62.95 158.52,59.65 158.52,55.12 C158.52,50.56 155.19,47.29 150.78,47.29 Z M168.3,59.32 C166.35,59.32 164.55,57.88 164.55,55.12 C164.55,52.33 166.35,50.92 168.3,50.92 C170.25,50.92 172.05,52.33 172.05,55.12 C172.05,57.91 170.25,59.32 168.3,59.32 Z M168.3,47.29 C163.89,47.29 160.56,50.56 160.56,55.12 C160.56,59.65 163.89,62.95 168.3,62.95 C172.71,62.95 176.04,59.65 176.04,55.12 C176.04,50.56 172.71,47.29 168.3,47.29 Z M183.18,62.5 L183.18,40.78 L179.19,40.78 L179.19,62.5 L183.18,62.5 Z M211.3,59.32 C209.35,59.32 207.55,57.88 207.55,55.12 C207.55,52.33 209.35,50.92 211.3,50.92 C213.25,50.92 215.05,52.33 215.05,55.12 C215.05,57.91 213.25,59.32 211.3,59.32 Z M211.3,47.29 C206.89,47.29 203.56,50.56 203.56,55.12 C203.56,59.65 206.89,62.95 211.3,62.95 C215.71,62.95 219.04,59.65 219.04,55.12 C219.04,50.56 215.71,47.29 211.3,47.29 Z M200.18,62.5 L200.18,47.5 L196.19,47.5 L196.19,62.5 L200.18,62.5 Z M196,43.46 C196,42.3610989 196.896175,41.46 197.989071,41.46 C199.103825,41.46 200,42.3610989 200,43.46 C200,44.5589011 199.103825,45.46 197.989071,45.46 C196.896175,45.46 196,44.5589011 196,43.46 Z M187.05,59.98 C187.05,58.48 188.28,57.25 189.78,57.25 C191.31,57.25 192.54,58.48 192.54,59.98 C192.54,61.48 191.31,62.71 189.78,62.71 C188.28,62.71 187.05,61.48 187.05,59.98 Z" id="VueSchool." fill="#38416F"></path>
            </g>
        </g>
    </g>
</svg>